<?xml version="1.0" encoding="utf-8"?>
<!-- Generator: Adobe Illustrator 25.4.0, SVG Export Plug-In . SVG Version: 6.00 Build 0)  -->
<svg version="1.0" id="Layer_1" xmlns="http://www.w3.org/2000/svg" xmlns:xlink="http://www.w3.org/1999/xlink" x="0px" y="0px"
	 viewBox="0 0 500 178.3" style="enable-background:new 0 0 500 178.3;" xml:space="preserve">
<style type="text/css">
	.st0{fill:#B2864C;}
	.st1{font-family:'Cinzel-Bold';}
	.st2{font-size:79.7369px;}
	.st3{fill:#FFFFFF;}
	.st4{fill-rule:evenodd;clip-rule:evenodd;fill:#FFFFFF;}
</style>
<g>
	<text transform="matrix(1 0 0 1 150.1523 80.3065)" class="st0 st1 st2"> </text>
	<g>
		<path class="st0" d="M198.6,80.3h-25.2v-0.8h1c1.9,0,3.4-0.8,4.4-2.5c0.4-0.7,0.7-1.6,0.7-2.5V30.2c-0.1-1.4-0.6-2.6-1.6-3.5
			c-1-1-2.2-1.4-3.6-1.4h-1v-0.8h23.1c6.2,0,11.1,1.1,14.7,3.3c3.6,2.2,5.5,5.7,5.5,10.3c-0.1,2.3-0.6,4.4-1.5,6.1
			c-1.8,3.3-4.5,5.2-8.3,5.7c4.1,0.4,7.5,1.9,10.1,4.6c2.7,2.7,4,6.1,4,10.2c0,5-2,8.8-6,11.5C211.1,79,205.6,80.3,198.6,80.3z
			 M204.1,39.2c-0.1-7.5-3.5-11.2-10.2-11.2h-2.3v48.7h3.7c0.1,0,0.1,0,0.2,0c3.7,0,6.6-1.1,8.8-3.2c2.2-2.1,3.3-5.4,3.3-9.7
			c0-4.4-1.2-7.6-3.7-9.7c-2.4-2.1-5.6-3.2-9.5-3.2v-0.7c2.8,0,5.1-0.9,6.9-2.7C203,45.6,204,42.9,204.1,39.2z"/>
	</g>
	<g>
		<path class="st0" d="M246.1,35.7h-2.6v39.5c0,1.3,0.4,2.3,1.3,3.1c0.9,0.8,1.9,1.2,3,1.2h0.9v0.8h-21.9v-0.8h1
			c1.2,0,2.2-0.4,3-1.2c0.8-0.8,1.2-1.8,1.2-2.9v-38c0-1.2-0.4-2.2-1.2-3c-0.8-0.8-1.8-1.2-2.9-1.2h-1v-0.8h24.5
			c4.8,0,8.8,0.9,12,2.8c3.6,2.1,5.4,5.5,5.4,10.3c0,3.1-0.9,5.9-2.8,8.3c-1.9,2.5-4.6,4-8.3,4.5c1.4,0.5,2.9,1.4,4.3,2.7
			c1.4,1.3,2.5,2.7,3.4,4.1c1.7,3,3.5,5.8,5.3,8.3c1.9,2.5,3.4,4.2,4.5,4.9c1.1,0.7,2.5,1.1,4.2,1.1v0.8h-6.7
			c-4.4,0-7.8-0.5-10.2-1.6c-2.4-1.1-4.5-3.1-6.3-6.1c-2.9-4.6-4.7-8.2-5.3-10.8c-0.6-1.6-1.4-2.8-2.3-3.6c-0.9-0.8-1.7-1.2-2.5-1.4
			v-0.6h2c4.5-0.1,7.3-2.7,8.3-8c0.2-0.8,0.3-1.5,0.3-2.1c0-0.6,0-1.4-0.1-2.4c-0.1-1-0.4-2.2-1-3.5c-0.6-1.3-1.4-2.2-2.4-2.8
			c-1.6-1-3.3-1.5-5.1-1.6C247.5,35.8,246.8,35.7,246.1,35.7z"/>
		<path class="st0" d="M278.6,79.5h1c1.3,0,2.4-0.4,3.3-1.2c0.9-0.8,1.4-1.8,1.4-3V37.5c0-1.2-0.5-2.2-1.4-3c-0.9-0.8-2-1.2-3.3-1.2
			h-1v-0.8h22.6v0.8h-1c-1.2,0-2.3,0.4-3.2,1.2c-0.9,0.8-1.4,1.8-1.4,3v37.9c0.1,1.2,0.5,2.2,1.4,3c0.9,0.8,2,1.2,3.2,1.2h1v0.8
			h-22.6V79.5z"/>
		<path class="st0" d="M307.6,73.8c0-3.5,0.8-6.4,2.3-8.9h0.6c-0.1,0.4-0.1,0.7-0.1,1c0,3.2,1.2,6.1,3.5,8.5
			c2.3,2.4,5.5,3.7,9.7,3.7c3,0,5.3-0.7,6.9-2.1c1.6-1.4,2.4-2.9,2.4-4.6s-0.5-3.1-1.4-4.1c-0.9-1-2.5-2.2-4.6-3.6l-11.3-7.2
			c-4.8-3-7.2-6.8-7.2-11.5c0-0.5,0-1,0.1-1.5c0.3-3.8,1.8-6.7,4.4-8.9c2.6-2.2,5.7-3.2,9.2-3.2c3.5,0,7.3,0.2,11.2,0.7h4.3
			l-1.1,10.5h-0.7c0-2.5-0.9-4.5-2.6-5.9c-1.7-1.4-4-2.2-6.9-2.2c-2.8,0-5.1,0.6-6.7,1.8c-1.7,1.2-2.5,2.8-2.5,4.7
			c0,1.6,0.8,3,2.4,4.1c0.6,0.5,1.6,1.1,2.8,1.8l12.7,7.8c4.4,2.7,6.5,6.3,6.5,11c0,4.9-1.7,8.7-5.2,11.4c-3.5,2.7-8,4-13.5,4
			c-3.4,0-6.4-0.4-9-1.2c-2.6-0.8-4.5-1.8-5.7-3C307.8,76.2,307.6,75,307.6,73.8z"/>
	</g>
	<g>
		<path class="st0" d="M390.2,43.8v-0.7c0-2.3-0.6-4.1-1.9-5.4c-1.3-1.3-3.1-2-5.3-2.1h-9.3v39.8c0.1,1.2,0.5,2.2,1.4,2.9
			c0.8,0.8,1.9,1.2,3,1.2h0.9v0.8h-22v-0.8h0.8c1.2,0,2.3-0.4,3.1-1.2c0.8-0.8,1.3-1.8,1.3-3V35.6h-9.2c-2.3,0.1-4.1,0.7-5.4,2.1
			c-1.3,1.3-1.9,3.1-1.9,5.4v0.7h-0.8V31.2c0.7,0.3,2,0.5,3.7,0.8c1.7,0.3,3.3,0.4,4.7,0.4h29.4c2.3,0,4.3-0.2,5.8-0.5
			c1.5-0.3,2.4-0.6,2.6-0.7v12.6H390.2z"/>
	</g>
	<g>
		<path class="st0" d="M393.8,56.4c0-7.7,2.6-13.7,7.7-18.2c5.1-4.5,12-6.7,20.5-6.7c8.5,0,15.4,2.2,20.5,6.7
			c5.2,4.5,7.7,10.6,7.7,18.2s-2.6,13.7-7.7,18.2c-5.2,4.5-12,6.7-20.5,6.7c-8.5,0-15.3-2.2-20.5-6.7
			C396.4,70.1,393.8,64,393.8,56.4z M406,56.4c0,6.7,1.4,12,4.3,15.9c2.9,3.9,6.8,5.9,11.6,5.9s8.7-2,11.6-5.9
			c2.9-3.9,4.3-9.2,4.3-15.9s-1.5-12-4.3-15.9c-2.9-3.9-6.8-5.9-11.6-5.9s-8.7,2-11.6,5.9C407.5,44.4,406,49.7,406,56.4z"/>
	</g>
	<g>
		<path class="st0" d="M456,79.5c1.4,0,2.6-0.5,3.6-1.5c1-1,1.5-2.2,1.6-3.5V30.3c-0.1-1.4-0.6-2.6-1.6-3.5c-1-1-2.2-1.5-3.6-1.5h-1
			v-0.8h24.2l-0.1,0.8h-1c-1.4,0-2.6,0.5-3.6,1.5c-1,1-1.5,2.2-1.5,3.5v46.6h10.4c3.9,0,7.1-1.1,9.8-3.3c2.6-2.2,4.6-5.4,5.9-9.5
			h0.8l-3.7,16.3H455v-0.8H456z"/>
	</g>
	<path class="st0" d="M71.1,9.7C52.9,22.9,30.8,30.7,8.4,32.1c1.1,3.1,2.8,5.9,4,9C19.5,57.2,24.2,74.8,24,92.6
		c-0.1,14.9-4.1,29.8-11.8,42.6c10.3,10.3,22.2,19,34.9,26.2c8.3,4.6,17,8.6,26.2,11.3c2.1,0.9,4.2-0.1,6.2-0.7
		c12.1-3.9,23.4-9.9,34.1-16.8c8.8-5.9,17.1-12.4,24.6-19.9c-7.5-12.7-11.5-27.3-11.8-42c-0.2-13.6,2.4-27.1,6.8-39.9
		c2.4-7.3,5.7-14.3,8.9-21.3c-22.6-1.5-44.9-9.2-63.1-22.6c-1.2-0.9-2.4-1.9-3.8-2.6C73.7,7.6,72.4,8.8,71.1,9.7 M14.8,26.3
		C36.9,23.7,58.2,14.4,75.1,0c15.6,13.2,34.8,22.2,54.9,25.5c6.8,1.3,13.6,1.5,20.5,1.9c-5.3,9.4-9.8,19.2-13.2,29.4
		c-4.7,14.4-7.2,29.7-5.3,44.8c1.3,12.2,5.8,23.9,12.5,34.2c-7.6,8.4-16.5,15.6-25.8,22c-11.9,8.1-24.8,14.8-38.5,19.2
		c-2.3,0.7-4.7,1.7-7.1,0.9c-13.3-3.8-25.7-10-37.3-17.4c-10.8-7.1-21.2-15-29.8-24.7c0.9-2,2.2-3.7,3.2-5.6
		c8.4-15,11.2-32.8,9.1-49.7C16.2,61.7,8.8,43.9,0,27.4C4.9,27.1,9.9,27,14.8,26.3z"/>
	<g>
		<path class="st3" d="M51.9,47.5c0-4.3-3.4-5.3-5.2-5.3v-0.8H64h18.3c25.4,0,26.8,34.5,4.3,37.8c14.2,3.9,24.4,14.8,24.4,29.9
			c0,43.4-71.7,44.3-71.7,4.9c0-9.7,4.2-18.9,12.5-23.9V47.5z M80.1,122.2h-0.4c10.1-8.7,3.6-29-13.2-29c-0.8,0-1.5,0-2.3,0.1v22.8
			c0,4.3,3.4,5.3,5.2,5.3v0.8l-22.7-0.1v-0.8c1.8,0,5.2-1,5.2-5.3V96.9c-6.4,3.6-10.9,10-10.9,18.4c0,29.2,56.5,40.6,56.5-5.2
			c0-14-7.4-30.8-23.7-30.8h-9.7v6.9c0.8-0.1,1.5-0.1,2.3-0.1C90.1,86.2,95.1,114.2,80.1,122.2z M77.2,77.8c15.8,0,15.3-35,0-35
			H64.2v35H77.2z"/>
	</g>
	<polygon class="st4" points="397.7,116.6 400.5,125.4 409.8,125.4 402.3,130.8 405.2,139.6 397.7,134.1 390.2,139.6 393.1,130.8 
		385.6,125.4 394.8,125.4 	"/>
	<polygon class="st4" points="426,116.6 428.8,125.4 438.1,125.4 430.6,130.8 433.4,139.6 426,134.1 418.5,139.6 421.4,130.8 
		413.9,125.4 423.1,125.4 	"/>
	<polygon class="st4" points="454.2,116.6 457.1,125.4 466.3,125.4 458.8,130.8 461.7,139.6 454.2,134.1 446.8,139.6 449.6,130.8 
		442.1,125.4 451.4,125.4 	"/>
	<polygon class="st4" points="482.5,116.6 485.4,125.4 494.6,125.4 487.1,130.8 490,139.6 482.5,134.1 475,139.6 477.9,130.8 
		470.4,125.4 479.7,125.4 	"/>
	<g>
		<path class="st3" d="M178.4,108.7h4.8v14.5h18.1v-14.5h4.8v35.2h-4.8v-16.4h-18.1v16.4h-4.8V108.7z"/>
	</g>
	<g>
		<path class="st3" d="M249.8,113.8c2.3,3.1,3.5,7.1,3.5,11.9c0,5.3-1.3,9.6-4,13.1c-3.1,4.1-7.6,6.1-13.4,6.1
			c-5.4,0-9.7-1.8-12.8-5.4c-2.8-3.4-4.1-7.8-4.1-13.1c0-4.8,1.2-8.8,3.5-12.2c3-4.3,7.5-6.5,13.5-6.5
			C242.2,107.8,246.8,109.8,249.8,113.8z M245.6,136.2c1.9-3,2.8-6.5,2.8-10.4c0-4.1-1.1-7.5-3.2-10c-2.2-2.5-5.1-3.8-8.9-3.8
			c-3.6,0-6.6,1.2-8.9,3.7c-2.3,2.5-3.4,6.2-3.4,11.1c0,3.9,1,7.2,3,9.9c2,2.7,5.2,4,9.6,4C240.7,140.7,243.7,139.2,245.6,136.2z"/>
	</g>
	<g>
		<path class="st3" d="M291.6,108.7v4.2h-11.9v31H275v-31h-11.8v-4.2H291.6z"/>
	</g>
	<g>
		<path class="st3" d="M303.6,108.7h25.5v4.3h-20.9v10.7h19.3v4.1h-19.3v11.9h21.2v4.2h-25.9V108.7z"/>
	</g>
	<g>
		<path class="st3" d="M343,108.7h4.8v31h17.6v4.2H343V108.7z"/>
	</g>
</g>
</svg>
