<?xml version="1.0" encoding="utf-8"?>
<!-- Generator: Adobe Illustrator 25.4.0, SVG Export Plug-In . SVG Version: 6.00 Build 0)  -->
<svg version="1.0" id="Layer_1" xmlns="http://www.w3.org/2000/svg" xmlns:xlink="http://www.w3.org/1999/xlink" x="0px" y="0px"
	 viewBox="0 0 500 475" style="enable-background:new 0 0 500 475;" xml:space="preserve">
<style type="text/css">
	.st0{fill:#B2864C;}
	.st1{fill:#FFFFFF;}
	.st2{fill-rule:evenodd;clip-rule:evenodd;fill:#FFFFFF;}
</style>
<g>
	<g>
		<path class="st0" d="M38.5,313.8H0v-1.2h1.6c2.9,0,5.2-1.3,6.7-3.8c0.6-1.1,1-2.4,1.1-3.8v-67.9c-0.1-2.1-0.9-3.9-2.4-5.4
			c-1.5-1.5-3.3-2.2-5.4-2.2H0v-1.2h35.4c9.4,0,17,1.7,22.5,5.1c5.6,3.4,8.4,8.7,8.5,15.8c-0.1,3.6-0.8,6.7-2.3,9.4
			c-2.7,5-6.9,7.9-12.7,8.7c6.3,0.6,11.4,2.9,15.5,7S73,283.6,73,290c0,7.6-3.1,13.5-9.2,17.6C57.6,311.7,49.2,313.8,38.5,313.8z
			 M46.8,250.8c-0.1-11.5-5.3-17.2-15.6-17.2h-3.5v74.6h5.6c0.1,0,0.2,0,0.2,0c5.6,0,10.1-1.6,13.4-4.9c3.3-3.3,5-8.2,5-14.9
			c0-6.7-1.9-11.6-5.6-14.9c-3.7-3.3-8.6-4.9-14.5-4.9v-1.1c4.2,0,7.8-1.4,10.6-4.1C45.3,260.7,46.8,256.5,46.8,250.8z"/>
	</g>
	<g>
		<path class="st0" d="M111.2,245.5h-3.9v60.6c0,2,0.7,3.5,2,4.7c1.3,1.2,2.9,1.8,4.6,1.8h1.3v1.2H81.6v-1.2h1.5
			c1.8,0,3.3-0.6,4.6-1.8c1.3-1.2,1.9-2.7,1.9-4.5v-58.1c0-1.8-0.6-3.3-1.9-4.5c-1.3-1.2-2.7-1.8-4.5-1.8h-1.6v-1.2h37.5
			c7.3,0,13.5,1.4,18.4,4.3c5.5,3.2,8.3,8.4,8.3,15.8c0,4.7-1.4,9-4.3,12.8c-2.9,3.8-7.1,6.1-12.7,6.9c2.2,0.7,4.4,2.1,6.5,4.2
			s3.9,4.1,5.2,6.2c2.6,4.6,5.3,8.9,8.2,12.8c2.9,3.9,5.1,6.4,6.9,7.5c1.7,1.1,3.9,1.7,6.4,1.7v1.2h-10.3c-6.8,0-11.9-0.8-15.6-2.4
			c-3.6-1.6-6.9-4.7-9.7-9.3c-4.4-7-7.1-12.5-8.2-16.6c-1-2.4-2.1-4.3-3.5-5.5c-1.3-1.2-2.6-1.9-3.8-2.1v-1h3.1
			c6.9-0.1,11.1-4.2,12.7-12.2c0.3-1.2,0.5-2.3,0.5-3.2c0-0.9,0-2.1-0.1-3.7c-0.1-1.6-0.6-3.4-1.5-5.4c-0.9-2-2.1-3.4-3.6-4.3
			c-2.5-1.5-5.1-2.4-7.8-2.4C113.3,245.6,112.3,245.5,111.2,245.5z"/>
		<path class="st0" d="M161,312.5h1.5c2,0,3.6-0.6,5-1.9c1.4-1.3,2.1-2.8,2.1-4.6v-57.9c0-1.8-0.7-3.3-2.1-4.6
			c-1.4-1.3-3.1-1.9-5-1.9H161v-1.2h34.7v1.2h-1.5c-1.9,0-3.5,0.6-4.9,1.8c-1.4,1.2-2.1,2.7-2.2,4.5v58c0.1,1.9,0.8,3.4,2.2,4.6
			c1.4,1.2,3,1.8,4.9,1.8h1.5v1.2H161V312.5z"/>
		<path class="st0" d="M205.4,303.8c0-5.3,1.2-9.8,3.5-13.6h1c-0.1,0.6-0.1,1.1-0.1,1.6c0,5,1.8,9.3,5.3,13.1
			c3.5,3.7,8.5,5.6,14.8,5.6c4.6,0,8.1-1.1,10.6-3.2c2.5-2.1,3.7-4.5,3.7-7.1c0-2.6-0.7-4.7-2.1-6.3c-1.4-1.6-3.8-3.4-7-5.6
			l-17.3-11c-7.3-4.6-11-10.4-11-17.6c0-0.7,0-1.5,0.1-2.3c0.5-5.8,2.7-10.3,6.7-13.6c4-3.3,8.7-4.9,14.1-4.9
			c5.4,0,11.1,0.4,17.2,1.1h6.6l-1.7,16.1h-1.1c0-3.8-1.3-6.8-4-9c-2.6-2.2-6.1-3.3-10.5-3.3c-4.4,0-7.8,0.9-10.3,2.7
			c-2.5,1.8-3.8,4.3-3.8,7.3c0,2.4,1.2,4.6,3.7,6.4c1,0.7,2.4,1.7,4.3,2.8l19.4,12c6.7,4.1,10,9.7,10,16.8c0,7.6-2.7,13.4-8,17.5
			c-5.3,4.1-12.2,6.1-20.7,6.1c-5.2,0-9.8-0.6-13.8-1.8c-4-1.2-6.9-2.8-8.8-4.6C205.7,307.4,205.4,305.7,205.4,303.8z"/>
	</g>
	<g>
		<path class="st0" d="M331.8,257.8v-1.1c0-3.5-1-6.3-2.9-8.3c-2-2-4.7-3.1-8.2-3.2h-14.2v60.9c0.1,1.8,0.8,3.3,2.1,4.5
			c1.3,1.2,2.9,1.8,4.6,1.8h1.3v1.2h-33.7v-1.2h1.2c1.9,0,3.5-0.6,4.8-1.8c1.3-1.2,1.9-2.8,1.9-4.6v-60.8h-14
			c-3.6,0.1-6.3,1.1-8.3,3.2c-2,2-2.9,4.8-2.9,8.3v1.1h-1.2v-19.3c1.1,0.4,3,0.8,5.7,1.2c2.6,0.4,5,0.6,7.1,0.6h45.1
			c3.6,0,6.5-0.3,8.9-0.8c2.3-0.5,3.6-0.9,4-1v19.3H331.8z"/>
	</g>
	<g>
		<path class="st0" d="M337.4,277.1c0-11.7,3.9-21,11.8-27.9c7.9-6.9,18.3-10.3,31.4-10.3c13.1,0,23.5,3.4,31.4,10.3
			c7.9,6.9,11.8,16.2,11.8,27.9c0,11.7-3.9,21-11.8,27.9c-7.9,6.9-18.4,10.3-31.4,10.3c-13,0-23.5-3.4-31.4-10.3
			C341.4,298.2,337.4,288.9,337.4,277.1z M356.1,277.1c0,10.3,2.2,18.4,6.7,24.4c4.4,6,10.4,9,17.8,9s13.4-3,17.8-9
			c4.4-6,6.7-14.1,6.7-24.4c0-10.3-2.2-18.4-6.7-24.4c-4.4-6-10.4-9-17.8-9s-13.4,3-17.8,9C358.3,258.8,356.1,266.9,356.1,277.1z"/>
	</g>
	<g>
		<path class="st0" d="M432.7,312.5c2.1,0,3.9-0.8,5.4-2.3c1.5-1.5,2.3-3.3,2.4-5.4v-67.6c-0.1-2.1-0.9-3.9-2.4-5.4
			c-1.5-1.5-3.3-2.3-5.4-2.3h-1.6v-1.2h37.1l-0.1,1.2h-1.5c-2.1,0-3.9,0.8-5.5,2.3c-1.6,1.5-2.3,3.3-2.3,5.4v71.3h16
			c5.9,0,10.9-1.7,15-5.1c4-3.4,7-8.3,9-14.5h1.2l-5.6,24.9h-63.2v-1.2H432.7z"/>
	</g>
	<path class="st0" d="M245.2,11.2c-20.9,15.2-46.3,24.1-72,25.7c1.3,3.5,3.2,6.8,4.6,10.3c8.2,18.6,13.6,38.8,13.4,59.3
		c-0.1,17.1-4.7,34.2-13.5,49c11.8,11.9,25.5,21.8,40.1,30.1c9.5,5.3,19.6,9.9,30.1,13c2.4,1,4.8-0.1,7.1-0.8
		c13.9-4.5,26.9-11.4,39.1-19.3c10.1-6.7,19.7-14.3,28.2-22.9c-8.6-14.5-13.2-31.4-13.5-48.2c-0.2-15.6,2.8-31.2,7.8-45.9
		c2.8-8.4,6.6-16.4,10.2-24.4c-26-1.7-51.5-10.6-72.6-26c-1.4-1.1-2.8-2.2-4.4-3C248.2,8.8,246.8,10.1,245.2,11.2 M180.6,30.3
		c25.4-3,49.8-13.7,69.3-30.3c18,15.1,39.9,25.5,63.1,29.3c7.8,1.5,15.7,1.7,23.5,2.2c-6.1,10.7-11.3,22.1-15.2,33.8
		c-5.4,16.5-8.3,34.1-6.1,51.5c1.5,14,6.7,27.5,14.3,39.3c-8.8,9.6-19,17.9-29.7,25.3c-13.7,9.3-28.5,17.1-44.2,22.1
		c-2.6,0.8-5.4,1.9-8.2,1c-15.2-4.3-29.6-11.5-42.9-20c-12.4-8.1-24.4-17.3-34.3-28.4c1-2.3,2.5-4.3,3.7-6.5
		c9.6-17.2,12.9-37.7,10.5-57.1c-2.4-21.6-10.8-42-21-61C169.2,31.1,174.9,31,180.6,30.3z"/>
	<g>
		<path class="st1" d="M223.2,54.6c0-5-3.9-6.1-6-6.1v-1h19.9h21.1c29.2,0,30.8,39.7,5,43.4c16.3,4.5,28.1,17,28.1,34.3
			c0,49.9-82.4,50.9-82.4,5.7c0-11.1,4.9-21.7,14.3-27.5V54.6z M255.7,140.4h-0.5c11.6-9.9,4.2-33.3-15.2-33.3c-0.9,0-1.8,0-2.6,0.1
			v26.2c0,5,3.9,6.1,5.9,6.1v1l-26-0.1v-1c2,0,6-1.2,6-6.1v-21.9c-7.4,4.2-12.5,11.5-12.5,21.2c0,33.5,64.9,46.6,64.9-5.9
			c0-16.1-8.5-35.4-27.2-35.4h-11.1v7.9c0.9-0.1,1.8-0.1,2.6-0.1C267.1,99,272.8,131.2,255.7,140.4z M252.3,89.4
			c18.1,0,17.6-40.2,0-40.2h-15v40.2H252.3z"/>
	</g>
	<polygon class="st2" points="150.5,428.5 156.2,446.3 175,446.2 159.8,457.2 165.6,475 150.5,464 135.4,475 141.2,457.2 126,446.2 
		144.7,446.3 	"/>
	<polygon class="st2" points="207.7,428.5 213.4,446.3 232.1,446.2 217,457.2 222.8,475 207.7,464 192.5,475 198.4,457.2 
		183.2,446.2 201.9,446.3 	"/>
	<polygon class="st2" points="264.8,428.5 270.6,446.3 289.3,446.2 274.1,457.2 279.9,475 264.8,464 249.7,475 255.5,457.2 
		240.4,446.2 259.1,446.3 	"/>
	<polygon class="st2" points="322,428.5 327.7,446.3 346.5,446.2 331.3,457.2 337.1,475 322,464 306.9,475 312.7,457.2 297.5,446.2 
		316.3,446.3 	"/>
	<g>
		<path class="st1" d="M106.6,357.3h7.4v22.3h27.7v-22.3h7.4v53.9h-7.4V386H114v25.2h-7.4V357.3z"/>
	</g>
	<g>
		<path class="st1" d="M215.9,365c3.6,4.8,5.4,10.9,5.4,18.3c0,8-2,14.7-6.1,20.1c-4.8,6.3-11.6,9.4-20.5,9.4
			c-8.3,0-14.8-2.7-19.5-8.2c-4.2-5.3-6.3-12-6.3-20c0-7.3,1.8-13.5,5.4-18.7c4.6-6.6,11.5-10,20.6-10
			C204.3,355.8,211.3,358.9,215.9,365z M209.5,399.3c2.9-4.6,4.3-9.9,4.3-15.9c0-6.3-1.7-11.4-5-15.3c-3.3-3.9-7.8-5.8-13.6-5.8
			c-5.6,0-10.1,1.9-13.6,5.7c-3.5,3.8-5.3,9.5-5.3,16.9c0,6,1.5,11,4.5,15.1c3,4.1,7.9,6.1,14.7,6.1
			C202,406.2,206.6,403.9,209.5,399.3z"/>
	</g>
	<g>
		<path class="st1" d="M280,357.3v6.4h-18.2v47.4h-7.4v-47.4h-18.1v-6.4H280z"/>
	</g>
	<g>
		<path class="st1" d="M298.4,357.3h39.1v6.6h-32v16.4H335v6.2h-29.6v18.3H338v6.4h-39.6V357.3z"/>
	</g>
	<g>
		<path class="st1" d="M358.7,357.3h7.3v47.4h27v6.4h-34.3V357.3z"/>
	</g>
</g>
</svg>
