<?xml version="1.0" encoding="UTF-8"?>
<svg version="1.1" xmlns="http://www.w3.org/2000/svg" width="512" height="512">
<path d="M0 0 C1.08970907 -0.00384115 2.17941814 -0.00768229 3.3021487 -0.01163983 C5.10488882 -0.01034011 5.10488882 -0.01034011 6.94404793 -0.00901413 C8.8537036 -0.01347081 8.8537036 -0.01347081 10.80193818 -0.01801753 C14.34280212 -0.02609565 17.8836458 -0.02787755 21.42451787 -0.028615 C25.24055289 -0.03046412 29.05657735 -0.03801068 32.87260628 -0.04475021 C41.21960413 -0.05833928 49.56659718 -0.06435899 57.91360426 -0.06876087 C63.12338011 -0.07152202 68.3331541 -0.07575911 73.5429287 -0.08026505 C87.9615454 -0.09245789 102.3801606 -0.10275755 116.79878235 -0.10614014 C117.72181389 -0.1063597 118.64484542 -0.10657927 119.59584761 -0.10680549 C120.52110979 -0.10702377 121.44637197 -0.10724204 122.39967239 -0.10746694 C124.27466321 -0.10791041 126.14965403 -0.10835697 128.02464485 -0.10880661 C128.9547086 -0.10902804 129.88477236 -0.10924947 130.84301986 -0.10947761 C145.91941332 -0.11342714 160.99575849 -0.1308858 176.07213329 -0.15416613 C191.54325411 -0.17786363 207.01435069 -0.19034124 222.48548996 -0.19150805 C231.1750604 -0.19242566 239.86456789 -0.19819945 248.55412102 -0.21632767 C255.95217416 -0.23170698 263.35014493 -0.23686194 270.74821101 -0.22858956 C274.52401021 -0.22467549 278.29964339 -0.2256494 282.07542229 -0.23964691 C286.16586613 -0.25467256 290.2559338 -0.24654196 294.34639168 -0.23606491 C296.14243963 -0.24814952 296.14243963 -0.24814952 297.97477138 -0.26047826 C299.06969595 -0.25388841 300.16462051 -0.24729857 301.29272461 -0.24050903 C302.23698173 -0.24110612 303.18123886 -0.24170321 304.15410984 -0.24231839 C307.31340683 0.2086873 309.19626277 1.27646763 311.77220345 3.13142776 C314.27719993 7.31792501 314.07861941 11.7905682 314.0729847 16.53767776 C314.07726982 17.33999832 314.08155495 18.14231888 314.08596992 18.96895218 C314.09169565 20.65998264 314.09222648 22.35103773 314.08787727 24.0420723 C314.08471369 26.62306683 314.10820981 29.2029182 314.13353157 31.78377151 C314.13580446 33.43090549 314.13650811 35.07804254 314.1354847 36.72517776 C314.14469444 37.4930159 314.15390419 38.26085403 314.16339302 39.05195999 C314.11350781 44.85235533 312.83377246 48.06985875 308.77220345 52.13142776 C306.61741829 52.35847855 306.61741829 52.35847855 303.98314095 52.32674026 C303.13542122 52.32174515 302.28770149 52.31675003 301.41429329 52.31160355 C300.33615364 52.29339554 299.25801399 52.27518753 298.14720345 52.25642776 C294.72345345 52.21517776 291.29970345 52.17392776 287.77220345 52.13142776 C287.77220345 64.01142776 287.77220345 75.89142776 287.77220345 88.13142776 C291.07220345 88.79142776 294.37220345 89.45142776 297.77220345 90.13142776 C299.49939112 90.55637502 301.22205252 91.00137792 302.93403816 91.48393631 C303.82549034 91.73332962 304.71694252 91.98272293 305.6354084 92.23967361 C306.57499901 92.50672104 307.51458961 92.77376846 308.48265266 93.04890823 C309.50181267 93.33538223 310.52097267 93.62185623 311.57101631 93.91701126 C314.90757618 94.85645223 318.24237911 95.80193221 321.57689095 96.74861526 C322.72114666 97.07276539 323.86540237 97.39691551 325.0443325 97.73088837 C331.0867238 99.44282127 337.12776214 101.15943435 343.16771126 102.87996292 C349.40545698 104.65585101 355.64761067 106.41569962 361.89089966 108.17198372 C366.69746894 109.52720545 371.50064698 110.89414759 376.30296898 112.26433563 C378.60383714 112.91860364 380.90597008 113.56844057 383.20936394 114.21376038 C386.42262791 115.11517687 389.63074148 116.03305912 392.83812141 116.95515823 C393.78985741 117.2181572 394.7415934 117.48115616 395.72216988 117.75212479 C396.59670311 118.00715775 397.47123634 118.2621907 398.37227058 118.52495193 C399.12990133 118.73989744 399.88753208 118.95484295 400.66812134 119.17630196 C403.52917661 120.47504772 404.91764856 121.56007759 406.77220345 124.13142776 C407.16493485 127.11428639 407.31265922 129.72740473 407.28013802 132.70979691 C407.28637798 133.58427255 407.29261794 134.45874819 407.29904699 135.35972309 C407.31502648 138.2956161 407.30235337 141.23068456 407.28978157 144.16658401 C407.29520048 146.26903646 407.30232184 148.37148511 407.3110218 150.47392654 C407.32928545 156.1887464 407.32217498 161.90327801 407.30950546 167.61810303 C407.29939359 173.5926861 407.30876609 179.56724414 407.31505013 185.54182816 C407.32233181 195.57597164 407.31272511 205.60999745 407.29368782 215.64412308 C407.27191817 227.25263175 407.27896916 238.86085944 407.30099344 250.46936131 C407.31913255 260.42783295 407.32171304 270.3862199 407.31123877 280.34470272 C407.30499566 286.29612905 407.30419069 292.24742321 407.31738472 298.19884109 C407.32892086 303.79344873 407.32095819 309.38769333 407.29780769 314.98226166 C407.29250866 317.03820187 407.29405468 319.09417252 407.30285835 321.15010071 C407.31375021 323.95150222 407.30012733 326.75173225 407.28013802 329.55305862 C407.2890609 330.37134171 407.29798379 331.18962481 407.30717707 332.03270435 C407.26170141 335.3065718 407.13680336 337.59822072 405.26275396 340.33891344 C401.76472966 342.85653299 398.57050632 342.68356373 394.42003059 342.63479233 C393.56567327 342.64060609 392.71131594 342.64641985 391.83106899 342.65240979 C388.9485348 342.66708748 386.06684178 342.65308842 383.18431282 342.63936234 C381.10480753 342.64396817 379.0253055 342.65031895 376.94581032 342.65827131 C371.21608901 342.67503124 365.48663282 342.66668802 359.75691032 342.65432644 C353.58368535 342.64530547 347.41050713 342.65923096 341.23729134 342.67024612 C329.8378166 342.68703663 318.43845042 342.68553678 307.03897834 342.67460025 C296.50888216 342.66454711 285.97881711 342.66190697 275.44871712 342.66669083 C274.7508538 342.66699637 274.05299048 342.66730191 273.33397979 342.66761671 C270.50128855 342.66886201 267.66859732 342.67013561 264.83590612 342.67145576 C238.25062404 342.68369809 211.66539608 342.67258791 185.08012235 342.65106817 C161.4488079 342.63208504 137.81757965 342.63378352 114.18626595 342.65291214 C87.65032566 342.67432002 61.11443321 342.68282995 34.57848549 342.67046309 C31.75088693 342.66918017 28.92328835 342.66792881 26.09568977 342.66669083 C25.39943762 342.66637452 24.70318548 342.66605821 23.98583478 342.66573231 C13.46107933 342.66117801 2.93635841 342.66651171 -7.58839226 342.67660904 C-19.55276965 342.68803014 -31.51704519 342.68483466 -43.48141861 342.66348606 C-49.59020457 342.65294648 -55.69881521 342.64890329 -61.80760002 342.66208267 C-67.3935829 342.6739522 -72.97922698 342.66753415 -78.56517887 342.64617246 C-80.59203155 342.64168324 -82.61891252 342.64402419 -84.64574718 342.65367562 C-87.38945307 342.66574416 -90.1319806 342.65346237 -92.8756237 342.63479233 C-94.07103169 342.64883932 -94.07103169 342.64883932 -95.29058933 342.6631701 C-98.78554218 342.61525334 -100.84590027 342.40628851 -103.71834707 340.33891344 C-106.03791118 336.94668032 -105.77896576 333.51793853 -105.73573112 329.55305862 C-105.74197109 328.67858298 -105.74821105 327.80410734 -105.7546401 326.90313244 C-105.77061959 323.96723943 -105.75794648 321.03217097 -105.74537468 318.09627151 C-105.75079359 315.99381907 -105.75791494 313.89137042 -105.76661491 311.78892899 C-105.78487856 306.07410913 -105.77776809 300.35957752 -105.76509857 294.6447525 C-105.7549867 288.67016943 -105.7643592 282.69561139 -105.77064323 276.72102737 C-105.77792492 266.68688389 -105.76831822 256.65285808 -105.74928093 246.61873245 C-105.72751128 235.01022378 -105.73456227 223.40199609 -105.75658655 211.79349422 C-105.77472566 201.83502258 -105.77730615 191.87663563 -105.76683187 181.91815281 C-105.76058877 175.96672648 -105.7597838 170.01543232 -105.77297783 164.06401443 C-105.78451397 158.4694068 -105.7765513 152.8751622 -105.7534008 147.28059387 C-105.74810177 145.22465366 -105.74964778 143.16868301 -105.75845146 141.11275482 C-105.76934332 138.31135331 -105.75572044 135.51112328 -105.73573112 132.70979691 C-105.74465401 131.89151381 -105.7535769 131.07323072 -105.76277018 130.23015118 C-105.71434974 126.74428459 -105.54488022 124.57499463 -103.49059963 121.70127106 C-101.14029128 120.07072006 -99.26061847 119.21492359 -96.51501274 118.43556595 C-95.57146431 118.16081436 -94.62791588 117.88606277 -93.65577507 117.60298538 C-92.62758659 117.31814285 -91.59939812 117.03330032 -90.54005241 116.7398262 C-89.45188728 116.42712784 -88.36372215 116.11442947 -87.24258232 115.7922554 C-83.64611174 114.7623137 -80.04459897 113.75136806 -76.4426403 112.74080276 C-73.94418065 112.03011088 -71.4460204 111.31836561 -68.94814873 110.60560989 C-63.71408995 109.11497775 -58.47779893 107.63263664 -53.23927116 106.15779495 C-46.51462238 104.26450565 -39.79458679 102.35535621 -33.07590199 100.44102478 C-26.67896375 98.61847111 -20.27953439 96.80471228 -13.8801403 94.99080276 C-12.65403479 94.64253181 -11.42792927 94.29426086 -10.16466904 93.93543625 C-6.70633577 92.9545547 -3.24651818 91.97911237 0.21385384 91.0054512 C1.24406654 90.71251175 2.27427925 90.4195723 3.33571053 90.11775589 C4.74680344 89.72254745 4.74680344 89.72254745 6.18640327 89.31935501 C7.00436913 89.08857128 7.822335 88.85778755 8.6650877 88.62001038 C10.77220345 88.13142776 10.77220345 88.13142776 13.77220345 88.13142776 C13.77220345 76.25142776 13.77220345 64.37142776 13.77220345 52.13142776 C7.04059021 52.28926291 7.04059021 52.28926291 0.31028938 52.49177933 C-6.59657894 52.57365807 -6.59657894 52.57365807 -9.83717155 50.30330276 C-12.61862567 45.95923397 -12.41988146 41.7205278 -12.4660778 36.73689651 C-12.47414955 35.91192169 -12.4822213 35.08694687 -12.49053764 34.23697281 C-12.50436229 32.49111905 -12.51509169 30.74523844 -12.52296257 28.99934769 C-12.54016628 26.33907309 -12.58406428 23.68004469 -12.62818718 21.02009964 C-12.6383156 19.32154104 -12.64683124 17.62297191 -12.6535778 15.92439651 C-12.67108589 15.13357178 -12.68859398 14.34274704 -12.70663261 13.52795792 C-12.68623551 8.29439818 -11.76297272 5.24255287 -8.22779655 1.13142776 C-5.19632315 0.12093663 -3.17054759 0.00418683 0 0 Z M5.77220345 18.13142776 C5.77220345 23.41142776 5.77220345 28.69142776 5.77220345 34.13142776 C101.47220345 34.13142776 197.17220345 34.13142776 295.77220345 34.13142776 C295.77220345 28.85142776 295.77220345 23.57142776 295.77220345 18.13142776 C200.07220345 18.13142776 104.37220345 18.13142776 5.77220345 18.13142776 Z M31.77220345 52.13142776 C31.77220345 141.89142776 31.77220345 231.65142776 31.77220345 324.13142776 C51.24220345 324.13142776 70.71220345 324.13142776 90.77220345 324.13142776 C90.77220345 302.02142776 90.77220345 279.91142776 90.77220345 257.13142776 C85.16220345 257.13142776 79.55220345 257.13142776 73.77220345 257.13142776 C73.77220345 251.19142776 73.77220345 245.25142776 73.77220345 239.13142776 C124.59220345 239.13142776 175.41220345 239.13142776 227.77220345 239.13142776 C227.77220345 245.07142776 227.77220345 251.01142776 227.77220345 257.13142776 C222.16220345 257.13142776 216.55220345 257.13142776 210.77220345 257.13142776 C210.77220345 279.24142776 210.77220345 301.35142776 210.77220345 324.13142776 C230.24220345 324.13142776 249.71220345 324.13142776 269.77220345 324.13142776 C269.77220345 234.37142776 269.77220345 144.61142776 269.77220345 52.13142776 C191.23220345 52.13142776 112.69220345 52.13142776 31.77220345 52.13142776 Z M287.77220345 107.13142776 C287.77220345 178.74142776 287.77220345 250.35142776 287.77220345 324.13142776 C321.10220345 324.13142776 354.43220345 324.13142776 388.77220345 324.13142776 C388.77220345 261.76142776 388.77220345 199.39142776 388.77220345 135.13142776 C340.57160276 117.30208631 340.57160276 117.30208631 287.77220345 107.13142776 Z M6.69098091 108.19441605 C5.86398847 108.42951889 5.03699602 108.66462173 4.1849432 108.90684891 C3.27763801 109.16916306 2.37033281 109.4314772 1.43553352 109.70174026 C-0.02210018 110.11805206 -0.02210018 110.11805206 -1.50918102 110.5427742 C-4.65994633 111.44363351 -7.80911847 112.34992891 -10.9582653 113.25642776 C-12.90107441 113.81277603 -14.84398555 114.36876812 -16.78700066 114.92439651 C-23.99767143 116.98908543 -31.20636383 119.06067853 -38.41529655 121.13142776 C-54.52342155 125.75142776 -70.63154655 130.37142776 -87.22779655 135.13142776 C-87.22779655 197.50142776 -87.22779655 259.87142776 -87.22779655 324.13142776 C-53.89779655 324.13142776 -20.56779655 324.13142776 13.77220345 324.13142776 C13.77220345 252.52142776 13.77220345 180.91142776 13.77220345 107.13142776 C11.0343746 107.13142776 9.28233531 107.45118508 6.69098091 108.19441605 Z M108.77220345 257.13142776 C108.77220345 279.24142776 108.77220345 301.35142776 108.77220345 324.13142776 C136.49220345 324.13142776 164.21220345 324.13142776 192.77220345 324.13142776 C192.77220345 302.02142776 192.77220345 279.91142776 192.77220345 257.13142776 C165.05220345 257.13142776 137.33220345 257.13142776 108.77220345 257.13142776 Z " fill="#EC623B" transform="translate(105.22779655456543,152.86857223510742)"/>
<path d="M0 0 C1.37019607 -0.00576161 2.74038442 -0.013703 4.1105566 -0.02363622 C7.87513944 -0.04452809 11.63908935 -0.03418426 15.4036746 -0.01870513 C19.4637505 -0.00740492 23.52371658 -0.02484769 27.58377075 -0.03860474 C35.53714646 -0.06085598 43.49028646 -0.05602761 51.44367146 -0.04154153 C57.90663035 -0.03025668 64.36952311 -0.02871512 70.83248901 -0.03416061 C71.75178788 -0.03492678 72.67108675 -0.03569294 73.61824316 -0.03648233 C75.48569085 -0.03808093 77.35313853 -0.03970199 79.22058618 -0.04134528 C96.73804433 -0.05560831 114.25537173 -0.03920139 131.77280843 -0.01234345 C146.80864677 0.00999584 161.8442921 0.00611586 176.88012695 -0.01693726 C194.33422938 -0.0436855 211.78821717 -0.05423496 229.24233723 -0.03887594 C231.10297456 -0.03728317 232.9636119 -0.03571131 234.82424927 -0.03416061 C236.19750843 -0.03300355 236.19750843 -0.03300355 237.59851021 -0.03182311 C244.05486769 -0.02750317 250.51115254 -0.03479896 256.96749878 -0.04655838 C264.83402488 -0.06057109 272.70030147 -0.05680943 280.56679893 -0.03015466 C284.58167108 -0.01699977 288.59612702 -0.01189218 292.61099625 -0.02840042 C296.28505657 -0.04327903 299.95831416 -0.03514765 303.63230145 -0.00851266 C305.59380139 -0.00026465 307.55535688 -0.01662436 309.51679897 -0.03379881 C317.98823341 0.06114763 317.98823341 0.06114763 322.11233425 2.87770176 C323.87817956 5.71495045 324.45414664 7.0891132 324.45655823 10.38529968 C324.47553917 11.77527412 324.47553917 11.77527412 324.49490356 13.19332886 C324.48321136 14.19764954 324.47151917 15.20197021 324.45947266 16.23672485 C324.47020561 17.83752144 324.47020561 17.83752144 324.4811554 19.47065735 C324.49805514 22.99589932 324.47863215 26.51987207 324.45727539 30.04507446 C324.4581039 32.49457403 324.4605626 34.94407354 324.46458435 37.39356995 C324.46744317 42.52570339 324.45273097 47.6574006 324.42529297 52.78945923 C324.39119285 59.3728189 324.39723401 65.95539934 324.41595554 72.53879642 C324.42651539 77.59595757 324.4175971 82.65293687 324.40257072 87.7100811 C324.39738225 90.13780617 324.39787874 92.56555018 324.40411568 94.99327278 C324.40955607 98.38343392 324.38922942 101.77247278 324.36181641 105.1625061 C324.37160522 106.67202347 324.37160522 106.67202347 324.3815918 108.21203613 C324.28794994 115.01068722 324.28794994 115.01068722 321.92002869 118.22694397 C318.49100441 120.53514841 316.56121164 120.76064803 312.43971443 120.76355267 C311.28867859 120.76677711 310.13764275 120.77000156 308.95172703 120.77332371 C307.67626826 120.77177511 306.40080948 120.77022651 305.08670044 120.76863098 C303.72664034 120.77049773 302.36658077 120.77279789 301.00652206 120.7754963 C297.25623776 120.78163757 293.50597567 120.78147799 289.75568748 120.78030193 C285.71606839 120.78009851 281.67645656 120.78561108 277.63684082 120.7903595 C269.71755371 120.79867941 261.79827403 120.80141494 253.87898292 120.80197188 C247.44408969 120.80244641 241.00919893 120.80449805 234.57430649 120.8076725 C216.34499982 120.81648283 198.11569904 120.8210913 179.88639022 120.82034203 C178.90286338 120.82030207 177.91933654 120.82026211 176.90600586 120.82022095 C175.92128323 120.82018007 174.9365606 120.82013919 173.92199789 120.82009707 C157.95896335 120.81969052 141.99595239 120.82926131 126.03292467 120.84335931 C109.65670064 120.85770854 93.28048813 120.8646303 76.90425766 120.86376554 C67.70443278 120.86343306 58.50463261 120.86620238 49.30481339 120.87694359 C41.47230366 120.88602951 33.63982985 120.88823962 25.80731715 120.88143416 C21.80890645 120.87815923 17.81056472 120.87814716 13.81216049 120.88678741 C10.15431927 120.89461064 6.49660221 120.89326412 2.83876418 120.88450328 C0.88333848 120.88222549 -1.07209093 120.88982963 -3.02750194 120.89774293 C-4.76187895 120.89084473 -4.76187895 120.89084473 -6.53129387 120.88380718 C-7.53115251 120.88402455 -8.53101116 120.88424192 -9.56116855 120.88446587 C-12.30287775 120.62237164 -13.88381328 120.14759914 -16.17163086 118.63491821 C-18.27319628 115.48257008 -18.42491539 114.73055275 -18.44578552 111.1317749 C-18.45576065 110.20931976 -18.46573578 109.28686462 -18.47601318 108.3364563 C-18.47667786 107.32651611 -18.47734253 106.31657593 -18.47802734 105.27603149 C-18.48635086 104.21073212 -18.49467438 103.14543274 -18.50325012 102.04785156 C-18.52739793 98.51694106 -18.53612799 94.9862151 -18.54272461 91.45523071 C-18.55168701 89.00526879 -18.56080877 86.55530744 -18.57008362 84.10534668 C-18.58658899 78.96561348 -18.59427661 73.82594556 -18.59716797 68.68618774 C-18.60255449 62.09612869 -18.64024004 55.5066818 -18.68591213 48.91679573 C-18.71563507 43.85534417 -18.72289049 38.79404088 -18.72389412 33.73250961 C-18.72810556 31.30278595 -18.74057656 28.87306221 -18.76141167 26.44342422 C-18.78822692 23.04602112 -18.78352899 19.65004841 -18.77099609 16.25259399 C-18.78583038 15.24670227 -18.80066467 14.24081055 -18.81594849 13.20443726 C-18.80618484 12.27634247 -18.7964212 11.34824768 -18.78636169 10.39202881 C-18.78837302 9.5893564 -18.79038435 8.786684 -18.79245663 7.95968819 C-16.31922752 -1.30166834 -7.81202211 -0.06840231 0 0 Z M-0.17163086 18.63491821 C-0.17163086 46.35491821 -0.17163086 74.07491821 -0.17163086 102.63491821 C100.80836914 102.63491821 201.78836914 102.63491821 305.82836914 102.63491821 C305.82836914 74.91491821 305.82836914 47.19491821 305.82836914 18.63491821 C204.84836914 18.63491821 103.86836914 18.63491821 -0.17163086 18.63491821 Z " fill="#F69F2F" transform="translate(103.171630859375,16.365081787109375)"/>
<path d="M0 0 C0.85049927 -0.00191345 1.70099854 -0.0038269 2.57727051 -0.00579834 C4.37264299 -0.00715729 6.16802539 -0.00348114 7.96337891 0.00488281 C10.70888373 0.01558654 13.45373424 0.00497779 16.19921875 -0.0078125 C17.94531394 -0.00649085 19.69140873 -0.00392835 21.4375 0 C22.25738403 -0.00404846 23.07726807 -0.00809692 23.92199707 -0.01226807 C31.23326034 0.04777983 31.23326034 0.04777983 34.21875 2.265625 C36.49392076 5.67838115 36.47947835 6.93094963 36.50927734 10.94287109 C36.52203705 12.10773041 36.53479675 13.27258972 36.54794312 14.4727478 C36.55016876 15.73213165 36.55239441 16.9915155 36.5546875 18.2890625 C36.5613443 19.58252594 36.5680011 20.87598938 36.57485962 22.20864868 C36.58683273 24.94740129 36.59054048 27.68602776 36.58935547 30.42480469 C36.58915238 33.9276948 36.61644173 37.4297726 36.65089989 40.93247032 C36.67854026 44.28051312 36.67731877 47.62840708 36.6796875 50.9765625 C36.69405853 52.23189789 36.70842957 53.48723328 36.72323608 54.78060913 C36.71708282 55.95177277 36.71092957 57.1229364 36.70458984 58.32958984 C36.70743988 59.35756683 36.71028992 60.38554382 36.71322632 61.44467163 C36.07896919 65.0630649 34.84298208 66.72607958 32.21875 69.265625 C30.13220215 69.89381409 30.13220215 69.89381409 27.88085938 69.89672852 C27.03317993 69.90926163 26.18550049 69.92179474 25.31213379 69.93470764 C24.40475464 69.92144943 23.49737549 69.90819122 22.5625 69.89453125 C21.15357483 69.89814919 21.15357483 69.89814919 19.71618652 69.90184021 C17.73246026 69.90086174 15.7487067 69.88746805 13.76513672 69.86254883 C10.72919941 69.82824308 7.69617313 69.84188856 4.66015625 69.86132812 C2.73175845 69.85442955 0.80336815 69.84475706 -1.125 69.83203125 C-2.03237915 69.83699112 -2.9397583 69.84195099 -3.87463379 69.84706116 C-10.16417184 69.7295601 -10.16417184 69.7295601 -13.32226562 67.35522461 C-15.67533419 63.98509177 -15.91376738 62.06472263 -15.94238281 57.97729492 C-15.95199036 56.87242233 -15.9615979 55.76754974 -15.97149658 54.62919617 C-15.97574646 53.43027237 -15.97999634 52.23134857 -15.984375 50.99609375 C-15.99007507 49.7678035 -15.99577515 48.53951324 -16.00164795 47.27400208 C-16.0111087 44.67055119 -16.01763618 42.06708828 -16.02148438 39.46362305 C-16.02803795 35.48014352 -16.06219669 31.49703064 -16.09375 27.51367188 C-16.10028039 24.98698224 -16.10553072 22.4602889 -16.109375 19.93359375 C-16.1217218 18.74074265 -16.1340686 17.54789154 -16.14678955 16.31889343 C-16.14378845 15.20456436 -16.14078735 14.09023529 -16.13769531 12.94213867 C-16.14134094 11.96444016 -16.14498657 10.98674164 -16.14874268 9.97941589 C-15.63466174 6.18312758 -14.1659955 3.36071277 -11.14257812 0.96972656 C-7.46868953 -0.12575469 -3.79898935 -0.01875883 0 0 Z M2.21875 18.265625 C2.21875 29.155625 2.21875 40.045625 2.21875 51.265625 C7.49875 51.265625 12.77875 51.265625 18.21875 51.265625 C18.21875 40.375625 18.21875 29.485625 18.21875 18.265625 C12.93875 18.265625 7.65875 18.265625 2.21875 18.265625 Z " fill="#F59F30" transform="translate(185.78125,41.734375)"/>
<path d="M0 0 C5.94 0 11.88 0 18 0 C18 8.58 18 17.16 18 26 C23.61 26 29.22 26 35 26 C35 17.42 35 8.84 35 0 C40.94 0 46.88 0 53 0 C53 22.77 53 45.54 53 69 C47.06 69 41.12 69 35 69 C35 60.75 35 52.5 35 44 C29.39 44 23.78 44 18 44 C18 52.25 18 60.5 18 69 C12.06 69 6.12 69 0 69 C0 46.23 0 23.46 0 0 Z " fill="#F59F30" transform="translate(110,42)"/>
<path d="M0 0 C1.38120529 0.0001133 1.38120529 0.0001133 2.79031372 0.00022888 C4.28412064 0.00797081 4.28412064 0.00797081 5.80810547 0.01586914 C7.33538773 0.01799156 7.33538773 0.01799156 8.89352417 0.02015686 C12.15414332 0.02576639 15.41469448 0.03832051 18.67529297 0.05102539 C20.88232323 0.05603916 23.08935456 0.06060228 25.29638672 0.06469727 C30.71438178 0.07573892 36.13232583 0.09300996 41.55029297 0.11352539 C41.55029297 6.05352539 41.55029297 11.99352539 41.55029297 18.11352539 C30.33029297 18.11352539 19.11029297 18.11352539 7.55029297 18.11352539 C7.55029297 20.75352539 7.55029297 23.39352539 7.55029297 26.11352539 C13.16029297 26.11352539 18.77029297 26.11352539 24.55029297 26.11352539 C24.55029297 32.05352539 24.55029297 37.99352539 24.55029297 44.11352539 C18.94029297 44.11352539 13.33029297 44.11352539 7.55029297 44.11352539 C7.55029297 46.42352539 7.55029297 48.73352539 7.55029297 51.11352539 C18.77029297 51.11352539 29.99029297 51.11352539 41.55029297 51.11352539 C41.55029297 57.05352539 41.55029297 62.99352539 41.55029297 69.11352539 C34.78766561 69.23708363 28.02569453 69.32784703 21.26220703 69.38818359 C18.96130937 69.41333445 16.66049165 69.44745935 14.35986328 69.49072266 C11.05334764 69.55134686 7.74788776 69.5797298 4.44091797 69.60180664 C2.89697357 69.64051628 2.89697357 69.64051628 1.32183838 69.68000793 C-0.11920258 69.68057442 -0.11920258 69.68057442 -1.58935547 69.68115234 C-2.43318787 69.6922554 -3.27702026 69.70335846 -4.14642334 69.71479797 C-7.59693775 68.81404062 -8.62500808 67.10568117 -10.44970703 64.11352539 C-10.9576416 61.29930115 -10.9576416 61.29930115 -10.96728516 58.19335938 C-10.9798938 57.02542343 -10.99250244 55.85748749 -11.00549316 54.65415955 C-10.99739624 53.40196121 -10.98929932 52.14976288 -10.98095703 50.85961914 C-10.98478394 49.56661392 -10.98861084 48.2736087 -10.99255371 46.94142151 C-10.99843757 44.21026406 -10.98992153 41.4796314 -10.97119141 38.74853516 C-10.94837842 35.25224106 -10.96154469 31.75717368 -10.98548126 28.26092434 C-11.00342767 24.91872474 -10.99085636 21.57685357 -10.98095703 18.23461914 C-10.98905396 16.98039658 -10.99715088 15.72617401 -11.00549316 14.4339447 C-10.99288452 13.26916092 -10.98027588 12.10437714 -10.96728516 10.90429688 C-10.96410278 9.88013168 -10.96092041 8.85596649 -10.9576416 7.80076599 C-10.31814091 4.41747152 -9.08540979 3.25540864 -6.44970703 1.11352539 C-4.07579867 -0.07342879 -2.64725752 -0.00723294 0 0 Z " fill="#F59F30" transform="translate(300.44970703125,41.886474609375)"/>
<path d="M0 0 C5.94 0 11.88 0 18 0 C18 16.83 18 33.66 18 51 C29.55 51 41.1 51 53 51 C53 56.94 53 62.88 53 69 C46.23734816 69.09884695 39.47511642 69.17145935 32.71191406 69.21972656 C30.41105831 69.23984688 28.11025371 69.26714634 25.80957031 69.30175781 C22.50312683 69.35025612 19.19735915 69.37296478 15.890625 69.390625 C14.86132874 69.41127014 13.83203247 69.43191528 12.77154541 69.45318604 C5.64912117 69.45542593 5.64912117 69.45542593 2.38183594 67.16308594 C-0.03456557 63.38052104 -0.12242411 60.3550877 -0.11352539 55.96801758 C-0.11344986 54.72695755 -0.11337433 53.48589752 -0.11329651 52.20722961 C-0.10818991 50.85299642 -0.10297391 49.49876363 -0.09765625 48.14453125 C-0.09579083 46.75876415 -0.09436751 45.37299639 -0.09336853 43.98722839 C-0.0895531 40.3425209 -0.07973113 36.69785335 -0.06866455 33.05316162 C-0.0584295 29.33297262 -0.05386642 25.61277715 -0.04882812 21.89257812 C-0.03810798 14.59503178 -0.02051907 7.29752658 0 0 Z " fill="#F59D32" transform="translate(349,42)"/>
<path d="M0 0 C17.16 0 34.32 0 52 0 C52 5.94 52 11.88 52 18 C46.39 18 40.78 18 35 18 C35 34.83 35 51.66 35 69 C29.06 69 23.12 69 17 69 C17 52.17 17 35.34 17 18 C11.39 18 5.78 18 0 18 C0 12.06 0 6.12 0 0 Z " fill="#F6A22D" transform="translate(230,42)"/>
<path d="M0 0 C5.94 0 11.88 0 18 0 C18 5.94 18 11.88 18 18 C12.06 18 6.12 18 0 18 C0 12.06 0 6.12 0 0 Z " fill="#EA523B" transform="translate(452,401)"/>
<path d="M0 0 C5.94 0 11.88 0 18 0 C18 5.94 18 11.88 18 18 C12.06 18 6.12 18 0 18 C0 12.06 0 6.12 0 0 Z " fill="#EA523B" transform="translate(418,401)"/>
<path d="M0 0 C5.94 0 11.88 0 18 0 C18 5.94 18 11.88 18 18 C12.06 18 6.12 18 0 18 C0 12.06 0 6.12 0 0 Z " fill="#EA523B" transform="translate(76,401)"/>
<path d="M0 0 C5.94 0 11.88 0 18 0 C18 5.94 18 11.88 18 18 C12.06 18 6.12 18 0 18 C0 12.06 0 6.12 0 0 Z " fill="#EA523B" transform="translate(42,401)"/>
<path d="M0 0 C5.94 0 11.88 0 18 0 C18 5.94 18 11.88 18 18 C12.06 18 6.12 18 0 18 C0 12.06 0 6.12 0 0 Z " fill="#EC593B" transform="translate(452,366)"/>
<path d="M0 0 C5.94 0 11.88 0 18 0 C18 5.94 18 11.88 18 18 C12.06 18 6.12 18 0 18 C0 12.06 0 6.12 0 0 Z " fill="#EC593B" transform="translate(418,366)"/>
<path d="M0 0 C5.94 0 11.88 0 18 0 C18 5.94 18 11.88 18 18 C12.06 18 6.12 18 0 18 C0 12.06 0 6.12 0 0 Z " fill="#EC593B" transform="translate(76,366)"/>
<path d="M0 0 C5.94 0 11.88 0 18 0 C18 5.94 18 11.88 18 18 C12.06 18 6.12 18 0 18 C0 12.06 0 6.12 0 0 Z " fill="#EC593B" transform="translate(42,366)"/>
<path d="M0 0 C5.94 0 11.88 0 18 0 C18 5.94 18 11.88 18 18 C12.06 18 6.12 18 0 18 C0 12.06 0 6.12 0 0 Z " fill="#EB5F3C" transform="translate(332,341)"/>
<path d="M0 0 C5.94 0 11.88 0 18 0 C18 5.94 18 11.88 18 18 C12.06 18 6.12 18 0 18 C0 12.06 0 6.12 0 0 Z " fill="#EC5F3B" transform="translate(298,341)"/>
<path d="M0 0 C5.94 0 11.88 0 18 0 C18 5.94 18 11.88 18 18 C12.06 18 6.12 18 0 18 C0 12.06 0 6.12 0 0 Z " fill="#EB5F3C" transform="translate(264,341)"/>
<path d="M0 0 C5.94 0 11.88 0 18 0 C18 5.94 18 11.88 18 18 C12.06 18 6.12 18 0 18 C0 12.06 0 6.12 0 0 Z " fill="#EB5F3C" transform="translate(230,341)"/>
<path d="M0 0 C5.94 0 11.88 0 18 0 C18 5.94 18 11.88 18 18 C12.06 18 6.12 18 0 18 C0 12.06 0 6.12 0 0 Z " fill="#EC5F3B" transform="translate(196,341)"/>
<path d="M0 0 C5.94 0 11.88 0 18 0 C18 5.94 18 11.88 18 18 C12.06 18 6.12 18 0 18 C0 12.06 0 6.12 0 0 Z " fill="#EB5F3C" transform="translate(162,341)"/>
<path d="M0 0 C5.94 0 11.88 0 18 0 C18 5.94 18 11.88 18 18 C12.06 18 6.12 18 0 18 C0 12.06 0 6.12 0 0 Z " fill="#EC613C" transform="translate(452,332)"/>
<path d="M0 0 C5.94 0 11.88 0 18 0 C18 5.94 18 11.88 18 18 C12.06 18 6.12 18 0 18 C0 12.06 0 6.12 0 0 Z " fill="#EB613B" transform="translate(418,332)"/>
<path d="M0 0 C5.94 0 11.88 0 18 0 C18 5.94 18 11.88 18 18 C12.06 18 6.12 18 0 18 C0 12.06 0 6.12 0 0 Z " fill="#EB613B" transform="translate(76,332)"/>
<path d="M0 0 C5.94 0 11.88 0 18 0 C18 5.94 18 11.88 18 18 C12.06 18 6.12 18 0 18 C0 12.06 0 6.12 0 0 Z " fill="#EC613C" transform="translate(42,332)"/>
<path d="M0 0 C5.94 0 11.88 0 18 0 C18 5.94 18 11.88 18 18 C12.06 18 6.12 18 0 18 C0 12.06 0 6.12 0 0 Z " fill="#EC663B" transform="translate(332,307)"/>
<path d="M0 0 C5.94 0 11.88 0 18 0 C18 5.94 18 11.88 18 18 C12.06 18 6.12 18 0 18 C0 12.06 0 6.12 0 0 Z " fill="#EC663C" transform="translate(298,307)"/>
<path d="M0 0 C5.94 0 11.88 0 18 0 C18 5.94 18 11.88 18 18 C12.06 18 6.12 18 0 18 C0 12.06 0 6.12 0 0 Z " fill="#ED663B" transform="translate(264,307)"/>
<path d="M0 0 C5.94 0 11.88 0 18 0 C18 5.94 18 11.88 18 18 C12.06 18 6.12 18 0 18 C0 12.06 0 6.12 0 0 Z " fill="#ED663B" transform="translate(230,307)"/>
<path d="M0 0 C5.94 0 11.88 0 18 0 C18 5.94 18 11.88 18 18 C12.06 18 6.12 18 0 18 C0 12.06 0 6.12 0 0 Z " fill="#EC663C" transform="translate(196,307)"/>
<path d="M0 0 C5.94 0 11.88 0 18 0 C18 5.94 18 11.88 18 18 C12.06 18 6.12 18 0 18 C0 12.06 0 6.12 0 0 Z " fill="#EC663B" transform="translate(162,307)"/>
<path d="M0 0 C5.94 0 11.88 0 18 0 C18 5.94 18 11.88 18 18 C12.06 18 6.12 18 0 18 C0 12.06 0 6.12 0 0 Z " fill="#ED683C" transform="translate(452,298)"/>
<path d="M0 0 C5.94 0 11.88 0 18 0 C18 5.94 18 11.88 18 18 C12.06 18 6.12 18 0 18 C0 12.06 0 6.12 0 0 Z " fill="#EC683C" transform="translate(418,298)"/>
<path d="M0 0 C5.94 0 11.88 0 18 0 C18 5.94 18 11.88 18 18 C12.06 18 6.12 18 0 18 C0 12.06 0 6.12 0 0 Z " fill="#EC683C" transform="translate(76,298)"/>
<path d="M0 0 C5.94 0 11.88 0 18 0 C18 5.94 18 11.88 18 18 C12.06 18 6.12 18 0 18 C0 12.06 0 6.12 0 0 Z " fill="#ED683C" transform="translate(42,298)"/>
<path d="M0 0 C5.94 0 11.88 0 18 0 C18 5.94 18 11.88 18 18 C12.06 18 6.12 18 0 18 C0 12.06 0 6.12 0 0 Z " fill="#EE6E3C" transform="translate(332,273)"/>
<path d="M0 0 C5.94 0 11.88 0 18 0 C18 5.94 18 11.88 18 18 C12.06 18 6.12 18 0 18 C0 12.06 0 6.12 0 0 Z " fill="#ED6E3C" transform="translate(298,273)"/>
<path d="M0 0 C5.94 0 11.88 0 18 0 C18 5.94 18 11.88 18 18 C12.06 18 6.12 18 0 18 C0 12.06 0 6.12 0 0 Z " fill="#EE6E3C" transform="translate(264,273)"/>
<path d="M0 0 C5.94 0 11.88 0 18 0 C18 5.94 18 11.88 18 18 C12.06 18 6.12 18 0 18 C0 12.06 0 6.12 0 0 Z " fill="#EE6E3C" transform="translate(230,273)"/>
<path d="M0 0 C5.94 0 11.88 0 18 0 C18 5.94 18 11.88 18 18 C12.06 18 6.12 18 0 18 C0 12.06 0 6.12 0 0 Z " fill="#ED6E3C" transform="translate(196,273)"/>
<path d="M0 0 C5.94 0 11.88 0 18 0 C18 5.94 18 11.88 18 18 C12.06 18 6.12 18 0 18 C0 12.06 0 6.12 0 0 Z " fill="#EE6E3C" transform="translate(162,273)"/>
<path d="M0 0 C5.94 0 11.88 0 18 0 C18 5.94 18 11.88 18 18 C12.06 18 6.12 18 0 18 C0 12.06 0 6.12 0 0 Z " fill="#EF753C" transform="translate(332,238)"/>
<path d="M0 0 C5.94 0 11.88 0 18 0 C18 5.94 18 11.88 18 18 C12.06 18 6.12 18 0 18 C0 12.06 0 6.12 0 0 Z " fill="#EF753C" transform="translate(298,238)"/>
<path d="M0 0 C5.94 0 11.88 0 18 0 C18 5.94 18 11.88 18 18 C12.06 18 6.12 18 0 18 C0 12.06 0 6.12 0 0 Z " fill="#EF753C" transform="translate(264,238)"/>
<path d="M0 0 C5.94 0 11.88 0 18 0 C18 5.94 18 11.88 18 18 C12.06 18 6.12 18 0 18 C0 12.06 0 6.12 0 0 Z " fill="#EF753C" transform="translate(230,238)"/>
<path d="M0 0 C5.94 0 11.88 0 18 0 C18 5.94 18 11.88 18 18 C12.06 18 6.12 18 0 18 C0 12.06 0 6.12 0 0 Z " fill="#EF753C" transform="translate(196,238)"/>
<path d="M0 0 C5.94 0 11.88 0 18 0 C18 5.94 18 11.88 18 18 C12.06 18 6.12 18 0 18 C0 12.06 0 6.12 0 0 Z " fill="#EF753C" transform="translate(162,238)"/>
</svg>
